<svg width="25" height="25" viewBox="0 0 25 25" fill="none" xmlns="http://www.w3.org/2000/svg">
<g clip-path="url(#clip0_2442_74)">
<path d="M21.2656 10.9066C21.2656 17.9066 12.2656 23.9066 12.2656 23.9066C12.2656 23.9066 3.26562 17.9066 3.26562 10.9066C3.26563 8.51961 4.21384 6.23042 5.90166 4.54259C7.58949 2.85477 9.87868 1.90656 12.2656 1.90656C14.6526 1.90656 16.9418 2.85477 18.6296 4.54259C20.3174 6.23042 21.2656 8.51961 21.2656 10.9066Z" stroke="black" stroke-width="2" stroke-linecap="round" stroke-linejoin="round"/>
<path d="M12.2656 13.9066C13.9225 13.9066 15.2656 12.5634 15.2656 10.9066C15.2656 9.2497 13.9225 7.90656 12.2656 7.90656C10.6088 7.90656 9.26562 9.2497 9.26562 10.9066C9.26562 12.5634 10.6088 13.9066 12.2656 13.9066Z" stroke="black" stroke-width="2" stroke-linecap="round" stroke-linejoin="round"/>
</g>
<defs>
<clipPath id="clip0_2442_74">
<rect width="24" height="24" fill="white" transform="translate(0.265625 0.906555)"/>
</clipPath>
</defs>
</svg>
